<?xml version="1.0" encoding="UTF-8"?>
<svg width="426px" height="151px" viewBox="0 0 426 151" version="1.1" xmlns="http://www.w3.org/2000/svg" xmlns:xlink="http://www.w3.org/1999/xlink">
    <!-- Generator: Sketch 52.5 (67469) - http://www.bohemiancoding.com/sketch -->
    <title>full-inverted</title>
    <desc>Created with Sketch.</desc>
    <g id="full-inverted" stroke="none" stroke-width="1" fill="none" fill-rule="evenodd">
        <g id="logo-inverted" transform="translate(8.000000, 8.000000)" fill="#FFFFFF">
            <path d="M115.580583,1.42108547e-14 L105.291923,10.2886593 C104.068063,9.70297549 102.697333,9.375 101.25,9.375 C96.0723305,9.375 91.875,13.5723305 91.875,18.75 C91.875,23.9276695 96.0723305,28.125 101.25,28.125 C106.42767,28.125 110.625,23.9276695 110.625,18.75 C110.625,17.3026671 110.297025,15.9319369 109.711341,14.7080767 L124.419417,1.02140518e-14 L135,1.42108547e-14 L135,135 L0,135 L0,34.375 L20.625,34.375 C21.4538015,34.375 22.2486575,34.0457599 22.8347087,33.4597087 L29.2940343,27.0003831 C30.619404,27.7177149 32.1371387,28.125 33.75,28.125 C38.9276695,28.125 43.125,23.9276695 43.125,18.75 C43.125,13.5723305 38.9276695,9.375 33.75,9.375 C28.5723305,9.375 24.375,13.5723305 24.375,18.75 C24.375,20.0294498 24.6313014,21.2490372 25.0953624,22.3602203 L19.3305826,28.125 L9.70354213e-17,28.125 L0,1.42108547e-14 L115.580583,1.42108547e-14 Z M63.0440343,27.0003831 C64.369404,27.7177149 65.8871387,28.125 67.5,28.125 C72.6776695,28.125 76.875,23.9276695 76.875,18.75 C76.875,13.5723305 72.6776695,9.375 67.5,9.375 C62.3223305,9.375 58.125,13.5723305 58.125,18.75 C58.125,20.0294498 58.3813014,21.2490372 58.8453624,22.3602203 L38.6032221,42.6023605 C37.1875036,41.7440967 35.526453,41.25 33.75,41.25 C28.5723305,41.25 24.375,45.4473305 24.375,50.625 C24.375,55.8026695 28.5723305,60 33.75,60 C38.9276695,60 43.125,55.8026695 43.125,50.625 C43.125,49.5162625 42.9325305,48.4524786 42.5791802,47.4652372 L63.0440343,27.0003831 Z M64.81375,123.125 L80.08,123.125 L69.3125,106.23625 C72.3116817,104.662909 74.5979088,102.462722 76.17125,99.635625 C77.7445912,96.8085275 78.53125,93.4529361 78.53125,89.56875 C78.53125,83.8162212 76.6506438,79.3543909 72.889375,76.183125 C69.1281062,73.0118591 63.8304508,71.42625 56.99625,71.42625 L33.765,71.42625 L33.765,123.125 L47.26125,123.125 L47.26125,108.8175 L57.29125,108.8175 L64.81375,123.125 Z M47.26125,98.05 L47.26125,82.19375 L57.07,82.19375 C59.8233471,82.19375 61.9497842,82.8697849 63.449375,84.221875 C64.9489658,85.5739651 65.69875,87.5037375 65.69875,90.01125 C65.69875,92.6170964 64.9489658,94.6083264 63.449375,95.985 C61.9497842,97.3616735 59.8233471,98.05 57.07,98.05 L47.26125,98.05 Z M87.3475,71.42625 L87.3475,123.125 L128.86875,123.125 L128.86875,112.3575 L100.84375,112.3575 L100.84375,102.6225 L125.47625,102.54875 L125.47625,91.855 L100.84375,91.855 L100.84375,82.19375 L128.13125,82.19375 L128.13125,71.42625 L87.3475,71.42625 Z M33.75,21.25 C32.3692881,21.25 31.25,20.1307119 31.25,18.75 C31.25,17.3692881 32.3692881,16.25 33.75,16.25 C35.1307119,16.25 36.25,17.3692881 36.25,18.75 C36.25,20.1307119 35.1307119,21.25 33.75,21.25 Z M67.5,21.25 C66.1192881,21.25 65,20.1307119 65,18.75 C65,17.3692881 66.1192881,16.25 67.5,16.25 C68.8807119,16.25 70,17.3692881 70,18.75 C70,20.1307119 68.8807119,21.25 67.5,21.25 Z M33.75,53.125 C32.3692881,53.125 31.25,52.0057119 31.25,50.625 C31.25,49.2442881 32.3692881,48.125 33.75,48.125 C35.1307119,48.125 36.25,49.2442881 36.25,50.625 C36.25,52.0057119 35.1307119,53.125 33.75,53.125 Z M101.25,21.25 C99.8692881,21.25 98.75,20.1307119 98.75,18.75 C98.75,17.3692881 99.8692881,16.25 101.25,16.25 C102.630712,16.25 103.75,17.3692881 103.75,18.75 C103.75,20.1307119 102.630712,21.25 101.25,21.25 Z" id="Combined-Shape-Copy"></path>
        </g>
        <text id="NATIVE" font-family="SFProDisplay-Heavy, SF Pro Display" font-size="74" font-weight="600" fill="#FFFFFF">
            <tspan x="160" y="131">NATIVE</tspan>
        </text>
    </g>
</svg>