<svg width="426" height="151" viewBox="0 0 426 151" xmlns="http://www.w3.org/2000/svg"><g fill="#444" fill-rule="evenodd"><path d="M123.58 8l-10.288 10.289a9.338 9.338 0 0 0-4.042-.914 9.375 9.375 0 1 0 9.375 9.375 9.338 9.338 0 0 0-.914-4.042L132.42 8H143v135H8V42.375h20.625a3.13 3.13 0 0 0 2.21-.915L37.294 35a9.333 9.333 0 0 0 4.456 1.125 9.375 9.375 0 1 0-8.655-5.765l-5.764 5.765H8V8h115.58zM71.045 35a9.333 9.333 0 0 0 4.456 1.125 9.375 9.375 0 1 0-8.655-5.765L46.603 50.602a9.375 9.375 0 1 0 4.522 8.023 9.359 9.359 0 0 0-.546-3.16L71.044 35zm1.77 96.125H88.08l-10.767-16.889c2.999-1.573 5.285-3.773 6.858-6.6 1.574-2.827 2.36-6.183 2.36-10.067 0-5.753-1.88-10.215-5.642-13.386-3.76-3.171-9.059-4.757-15.893-4.757H41.765v51.699h13.496v-14.308h10.03l7.523 14.308zM55.26 106.05V90.194h9.809c2.753 0 4.88.676 6.38 2.028 1.499 1.352 2.249 3.282 2.249 5.79 0 2.605-.75 4.596-2.25 5.973-1.5 1.377-3.626 2.065-6.379 2.065H55.26zm40.086-26.624v51.699h41.522v-10.767h-28.025v-9.736l24.632-.073V99.855h-24.632v-9.661h27.287V79.426H95.347zM41.75 29.25a2.5 2.5 0 1 1 0-5 2.5 2.5 0 0 1 0 5zm33.75 0a2.5 2.5 0 1 1 0-5 2.5 2.5 0 0 1 0 5zM41.75 61.125a2.5 2.5 0 1 1 0-5 2.5 2.5 0 0 1 0 5zm67.5-31.875a2.5 2.5 0 1 1 0-5 2.5 2.5 0 0 1 0 5z"/><text font-family="SFProDisplay-Heavy, SF Pro Display" font-size="74" font-weight="600"><tspan x="160" y="131">NATIVE</tspan></text></g></svg>