<svg width="216" height="216" viewBox="0 0 216 216" xmlns="http://www.w3.org/2000/svg"><path d="M184.929 0l-16.462 16.462A14.941 14.941 0 0 0 162 15c-8.284 0-15 6.716-15 15 0 8.284 6.716 15 15 15 8.284 0 15-6.716 15-15a14.94 14.94 0 0 0-1.462-6.467L199.071 0H216v216H0V55h33a5 5 0 0 0 3.536-1.464L46.87 43.2A14.933 14.933 0 0 0 54 45c8.284 0 15-6.716 15-15 0-8.284-6.716-15-15-15-8.284 0-15 6.716-15 15 0 2.047.41 3.998 1.153 5.776L30.929 45H0V0h184.929zM100.87 43.2A14.933 14.933 0 0 0 108 45c8.284 0 15-6.716 15-15 0-8.284-6.716-15-15-15-8.284 0-15 6.716-15 15 0 2.047.41 3.998 1.153 5.776L61.765 68.164A14.93 14.93 0 0 0 54 66c-8.284 0-15 6.716-15 15 0 8.284 6.716 15 15 15 8.284 0 15-6.716 15-15 0-1.774-.308-3.476-.873-5.056l32.743-32.743zm2.832 153.8h24.426L110.9 169.978c4.799-2.517 8.457-6.038 10.974-10.561 2.517-4.523 3.776-9.892 3.776-16.107 0-9.204-3.009-16.343-9.027-21.417-6.018-5.074-14.494-7.611-25.429-7.611h-37.17V197h21.594v-22.892h16.048L103.702 197zm-28.084-40.12v-25.37h15.694c4.405 0 7.808 1.082 10.207 3.245 2.4 2.163 3.599 5.251 3.599 9.263 0 4.17-1.2 7.355-3.599 9.558-2.4 2.203-5.802 3.304-10.207 3.304H75.618zm64.138-42.598V197h66.434v-17.228h-44.84v-15.576l39.412-.118v-17.11H161.35V131.51h43.66v-17.228h-65.254zM54 34a4 4 0 1 1 0-8 4 4 0 0 1 0 8zm54 0a4 4 0 1 1 0-8 4 4 0 0 1 0 8zM54 85a4 4 0 1 1 0-8 4 4 0 0 1 0 8zm108-51a4 4 0 1 1 0-8 4 4 0 0 1 0 8z" fill="#FFF" fill-rule="evenodd"/></svg>